# xmcd
#
# Track frame offsets:
#	150
#	16271
#	36847
#	51957
#	69368
#	90913
#	106524
#	126743
#
# Disc length: 1902 seconds
#
# Revision: 1
# Processed by: cddbd v1.5.2PL0 Copyright (c) Steve Scherf et al.
# Submitted via: audiograbber 1.83.01
#
DISCID=5e076c08
DTITLE=Karaoke - CB60474
DYEAR=1900
DGENRE=
TTITLE0=Big and Rich ftg Gretchen Wilson - Fake ID
TTITLE1=Taylor Swift - Sparks Fly
TTITLE2=Sawyer Brown - Smokin Hot Wife
TTITLE3=Ronnie Dunn - Cost of Livin'
TTITLE4=Reba McIntire - Somebody's Chelsea
TTITLE5=Locash Cowboys - You Got Me
TTITLE6=Christian Kane - Let Me Go
TTITLE7=Pistol Annies - Hell On Heels
EXTD=
EXTT0=
EXTT1=
EXTT2=
EXTT3=
EXTT4=
EXTT5=
EXTT6=
EXTT7=
PLAYORDER=
